# xmcd CD database file
#
# Track frame offsets:
#	150
#	14778
#	27568
#	41596
#	56711
#	70364
#	81804
#	92794
#	104347
#	120550
#	132290
#	142718
#
# Disc length: 2073 seconds
#
# Revision: 0
# Processed by: cddbd v1.5.2PL0 Copyright (c) Steve Scherf et al.
# Submitted via: CDex 1.51
#
DISCID=a708170c
DTITLE=Django Reinhardt - Nubes
DYEAR=1900
DGENRE=Jazz
TTITLE0=Nubes
TTITLE1=Noche y Día
TTITLE2=Insensiblemente
TTITLE3=Blues para Ike
TTITLE4=Topsy
TTITLE5=New York
TTITLE6=Brasil
TTITLE7=Canción de Septiembre
TTITLE8=Confessin'
TTITLE9=Manoir de mes rêves
TTITLE10=Moppin' the Bride
TTITLE11=Folie a Amphon
EXTD=
EXTT0=
EXTT1=
EXTT2=
EXTT3=
EXTT4=
EXTT5=
EXTT6=
EXTT7=
EXTT8=
EXTT9=
EXTT10=
EXTT11=
PLAYORDER=
